<svg xmlns="http://www.w3.org/2000/svg" viewBox="139 145.83 239.89 263.25">
  <g id="freepik--Device--inject-68">
    <path
      d="M363.45,145.83H330.89l-23,263.25h32.56a18.72,18.72,0,0,0,18.26-16.8l20.09-229.66A15.15,15.15,0,0,0,363.45,145.83Z"
      style="fill:#F2A39F" />
    <path
      d="M356.81,145.83H246.61a18.72,18.72,0,0,0-18.27,16.79L208.25,392.28a15.17,15.17,0,0,0,15.33,16.8H333.77A18.73,18.73,0,0,0,352,392.28l20.09-229.66A15.15,15.15,0,0,0,356.81,145.83Z"
      style="fill:#F2A39F" />
    <path
      d="M356.81,145.83H246.61a18.72,18.72,0,0,0-18.27,16.79L208.25,392.28a15.17,15.17,0,0,0,15.33,16.8H333.77A18.73,18.73,0,0,0,352,392.28l20.09-229.66A15.15,15.15,0,0,0,356.81,145.83Z"
      style="fill:#fff;opacity:0.30000000000000004" />
    <path
      d="M356.34,151.21H327.28a4.33,4.33,0,0,0-4,2.76h0a16,16,0,0,1-14.63,10.23H291.51A12.87,12.87,0,0,1,278.66,154h0a3.47,3.47,0,0,0-3.47-2.76H246.14a12.7,12.7,0,0,0-12.41,11.41l-20.1,229.66a10.29,10.29,0,0,0,10.42,11.42h110.2a12.71,12.71,0,0,0,12.41-11.42l20.09-229.66A10.29,10.29,0,0,0,356.34,151.21Z"
      style="fill:#fff;opacity:0.4" />
    <path
      d="M328.88,276H251.76a3.74,3.74,0,0,1-3.78-4.14l.39-4.42a4.61,4.61,0,0,1,4.5-4.14H330a3.74,3.74,0,0,1,3.78,4.14l-.38,4.42A4.62,4.62,0,0,1,328.88,276Z"
      style="fill:#fff" />
    <path
      d="M327.22,295H250.09a3.73,3.73,0,0,1-3.77-4.14l.38-4.42a4.62,4.62,0,0,1,4.5-4.14h77.13a3.74,3.74,0,0,1,3.78,4.14l-.39,4.42A4.62,4.62,0,0,1,327.22,295Z"
      style="fill:#fff" />
    <path
      d="M305.45,155.51a5.11,5.11,0,0,1-5,4.59,4.14,4.14,0,0,1-4.19-4.59,5.11,5.11,0,0,1,5-4.59A4.14,4.14,0,0,1,305.45,155.51Z"
      style="opacity:0.1" />
    <path
      d="M303.37,155.51a2.8,2.8,0,0,1-2.73,2.51,2.26,2.26,0,0,1-2.29-2.51,2.79,2.79,0,0,1,2.73-2.51A2.27,2.27,0,0,1,303.37,155.51Z"
      style="opacity:0.1" />
    <g style="opacity:0.8">
      <path
        d="M342.77,163.17h0a1.22,1.22,0,0,1-1.23-1.35l.22-2.46a1.49,1.49,0,0,1,1.46-1.34h0a1.22,1.22,0,0,1,1.23,1.34l-.22,2.46A1.5,1.5,0,0,1,342.77,163.17Z"
        style="fill:#fff" />
      <path
        d="M353.53,163.17h0a1.22,1.22,0,0,1-1.23-1.35l.51-5.77a1.49,1.49,0,0,1,1.46-1.34h0a1.22,1.22,0,0,1,1.23,1.34l-.51,5.77A1.5,1.5,0,0,1,353.53,163.17Z"
        style="fill:#fff" />
      <path
        d="M348.15,163.17h0a1.22,1.22,0,0,1-1.23-1.35l.36-4.11a1.5,1.5,0,0,1,1.47-1.35h0a1.21,1.21,0,0,1,1.22,1.35l-.36,4.11A1.5,1.5,0,0,1,348.15,163.17Z"
        style="fill:#fff" />
    </g>
    <g style="opacity:0.8">
      <path
        d="M250.64,163.17h-6.76a.68.68,0,0,1-.69-.76l.31-3.63a.85.85,0,0,1,.83-.76h6.76a.68.68,0,0,1,.69.76l-.32,3.63A.83.83,0,0,1,250.64,163.17Z"
        style="fill:#fff" />
      <path
        d="M253.77,162.18h0a.69.69,0,0,1-.7-.76l.15-1.66a.84.84,0,0,1,.83-.76h0a.68.68,0,0,1,.69.76l-.14,1.66A.85.85,0,0,1,253.77,162.18Z"
        style="fill:#fff" />
    </g>
    <ellipse cx="294.81" cy="224.63" rx="33.73" ry="30.9" transform="translate(-73.49 266.21) rotate(-43.75)"
      style="fill:#fff" />
    <path
      d="M294.92,223.38c-8.48,0-15.65,3.23-16.26,10.24l-.68,7.79h30.73l.68-7.79C310,226.61,303.41,223.38,294.92,223.38Z"
      style="fill:#F2A39F" />
    <path d="M295.2,220.17c3.94,0,5.76-3.19,6.1-7.13s-.91-7.13-4.85-7.13-5.75,3.2-6.1,7.13S291.26,220.17,295.2,220.17Z"
      style="fill:#F2A39F" />
    <path d="M325.36,269.38c-2.09,0-3.86.8-4,2.53l-.17,1.93h7.59l.17-1.93C329.09,270.18,327.46,269.38,325.36,269.38Z"
      style="fill:#F2A39F" />
    <path d="M325.43,268.59c1,0,1.42-.79,1.51-1.76s-.23-1.76-1.2-1.76-1.42.79-1.51,1.76S324.46,268.59,325.43,268.59Z"
      style="fill:#F2A39F" />
    <path
      d="M302,314H272a5.73,5.73,0,0,1-5.8-6.35h0a7.08,7.08,0,0,1,6.91-6.35h30a5.74,5.74,0,0,1,5.8,6.35h0A7.07,7.07,0,0,1,302,314Z"
      style="fill:#F2A39F" />
    <path
      d="M298.37,384.82H266.26a6,6,0,0,1-6.12-6.71l2.05-23.42a7.46,7.46,0,0,1,7.29-6.71H301.6a6.05,6.05,0,0,1,6.12,6.71l-2.05,23.42A7.48,7.48,0,0,1,298.37,384.82Z"
      style="fill:#F2A39F" />
    <g style="opacity:0.6000000000000001">
      <path
        d="M288.47,360.6a3.63,3.63,0,0,0-3.68-4,4.48,4.48,0,0,0-4.39,4,3.65,3.65,0,0,0,1.35,3.23l-.7,8.07a2.16,2.16,0,0,0,2.19,2.4,2.67,2.67,0,0,0,2.6-2.4l.71-8.07A4.46,4.46,0,0,0,288.47,360.6Z"
        style="fill:#fff" />
    </g>
    <path
      d="M301.88,352.86h-4.14l1-11.59a11.41,11.41,0,0,0-11.53-12.64,14.09,14.09,0,0,0-13.74,12.64l-1,11.59h-4.14l1-11.59a18.68,18.68,0,0,1,18.23-16.77,15.14,15.14,0,0,1,15.31,16.77Z"
      style="fill:#F2A39F" />
    <path
      d="M325.87,287.13,326,286a1.87,1.87,0,0,0-1.88-2.06,2.3,2.3,0,0,0-2.24,2.06l-.1,1.11a.92.92,0,0,0-.89.83l-.26,3a.73.73,0,0,0,.75.82h4.12a.91.91,0,0,0,.89-.82l.26-3A.75.75,0,0,0,325.87,287.13ZM324,284.47a1.41,1.41,0,0,1,1.42,1.55l-.1,1.11h-3.1l.1-1.11A1.73,1.73,0,0,1,324,284.47Z"
      style="fill:#F2A39F" />
    <path
      d="M263.85,288.32l-1.44-.3a.27.27,0,0,1-.19-.38l.6-1.42a.28.28,0,0,0-.47-.29l-1.09,1.12a.28.28,0,0,1-.44,0l-.89-1.12c-.19-.24-.6,0-.53.29l.35,1.42a.31.31,0,0,1-.25.38l-1.49.3c-.32.06-.36.51-.05.57l1.44.3a.26.26,0,0,1,.18.38L259,291a.28.28,0,0,0,.47.29l1.09-1.12a.3.3,0,0,1,.44,0l.89,1.12c.19.24.6,0,.52-.29l-.35-1.42a.33.33,0,0,1,.26-.38l1.49-.3C264.12,288.83,264.16,288.38,263.85,288.32Z"
      style="fill:#263238" />
    <path
      d="M273.31,288.32l-1.44-.3a.27.27,0,0,1-.19-.38l.6-1.42a.28.28,0,0,0-.47-.29l-1.09,1.12a.28.28,0,0,1-.44,0l-.89-1.12c-.19-.24-.6,0-.52.29l.35,1.42a.32.32,0,0,1-.26.38l-1.49.3c-.32.06-.36.51-.05.57l1.44.3a.27.27,0,0,1,.19.38l-.6,1.42a.28.28,0,0,0,.47.29l1.09-1.12a.3.3,0,0,1,.44,0l.89,1.12c.19.24.6,0,.53-.29l-.35-1.42a.32.32,0,0,1,.25-.38l1.49-.3C273.58,288.83,273.62,288.38,273.31,288.32Z"
      style="fill:#263238" />
    <path
      d="M282.77,288.32l-1.43-.3a.26.26,0,0,1-.19-.38l.6-1.42a.28.28,0,0,0-.48-.29l-1.08,1.12a.29.29,0,0,1-.45,0l-.89-1.12c-.19-.24-.6,0-.52.29l.35,1.42a.32.32,0,0,1-.25.38l-1.49.3c-.32.06-.36.51-.05.57l1.43.3a.27.27,0,0,1,.19.38l-.6,1.42a.28.28,0,0,0,.48.29l1.08-1.12a.3.3,0,0,1,.44,0l.9,1.12c.19.24.6,0,.52-.29l-.35-1.42a.33.33,0,0,1,.25-.38l1.49-.3C283,288.83,283.08,288.38,282.77,288.32Z"
      style="fill:#263238" />
    <path
      d="M292.24,288.32l-1.44-.3a.27.27,0,0,1-.19-.38l.6-1.42a.28.28,0,0,0-.47-.29l-1.09,1.12a.28.28,0,0,1-.44,0l-.89-1.12c-.19-.24-.6,0-.53.29l.35,1.42a.31.31,0,0,1-.25.38l-1.49.3c-.32.06-.36.51,0,.57l1.44.3a.26.26,0,0,1,.18.38l-.59,1.42a.28.28,0,0,0,.47.29l1.09-1.12a.3.3,0,0,1,.44,0l.89,1.12c.19.24.6,0,.52-.29l-.35-1.42a.33.33,0,0,1,.26-.38l1.49-.3C292.51,288.83,292.55,288.38,292.24,288.32Z"
      style="fill:#263238" />
    <path
      d="M301.7,288.32l-1.44-.3a.27.27,0,0,1-.19-.38l.6-1.42a.28.28,0,0,0-.47-.29l-1.09,1.12a.28.28,0,0,1-.44,0l-.89-1.12c-.19-.24-.6,0-.52.29l.35,1.42a.32.32,0,0,1-.26.38l-1.49.3c-.32.06-.36.51-.05.57l1.44.3a.27.27,0,0,1,.19.38l-.6,1.42a.28.28,0,0,0,.47.29l1.09-1.12a.3.3,0,0,1,.44,0l.89,1.12c.19.24.6,0,.53-.29l-.35-1.42a.32.32,0,0,1,.25-.38l1.49-.3C302,288.83,302,288.38,301.7,288.32Z"
      style="fill:#263238" />
    <path
      d="M311.16,288.32l-1.44-.3a.26.26,0,0,1-.18-.38l.6-1.42a.28.28,0,0,0-.48-.29l-1.08,1.12a.29.29,0,0,1-.45,0l-.89-1.12c-.19-.24-.6,0-.52.29l.35,1.42a.32.32,0,0,1-.25.38l-1.49.3c-.32.06-.36.51-.05.57l1.43.3a.27.27,0,0,1,.19.38l-.6,1.42a.28.28,0,0,0,.48.29l1.08-1.12a.3.3,0,0,1,.44,0l.89,1.12a.31.31,0,0,0,.53-.29l-.35-1.42a.33.33,0,0,1,.25-.38l1.49-.3C311.43,288.83,311.47,288.38,311.16,288.32Z"
      style="fill:#263238" />
    <path
      d="M288.35,267.61H270.59a2.23,2.23,0,0,0-2.18,2,1.8,1.8,0,0,0,1.83,2H288a2.23,2.23,0,0,0,2.18-2A1.81,1.81,0,0,0,288.35,267.61Z"
      style="fill:#263238" />
    <path
      d="M306.39,267.61H296.08a2.22,2.22,0,0,0-2.17,2,1.8,1.8,0,0,0,1.82,2H306a2.22,2.22,0,0,0,2.17-2A1.8,1.8,0,0,0,306.39,267.61Z"
      style="fill:#263238" />
    <path
      d="M320,358.26a45.29,45.29,0,0,0-16.59,11,19.71,19.71,0,0,0-9.73-4l-.47-.07-.2,2.36.26.1a18.33,18.33,0,0,1,9.33,7.68l.34.56.37-.6a43.46,43.46,0,0,1,16.92-15.56l.23-.12.13-1.56Z"
      style="fill:#263238" />
  </g>
  <g id="freepik--Document--inject-68">
    <path
      d="M230.64,161.37a18,18,0,0,0-2.3,7.25L213.45,338.84h46.08l9.26-35.49-3.05-35.5L275,232.36,272,196.87l9.26-35.5Z"
      style="opacity:0.2" />
    <polygon
      points="267.95 186.87 277.21 151.37 160.68 151.37 151.43 186.87 154.47 222.36 145.22 257.85 148.26 293.35 139.01 328.84 255.53 328.84 264.79 293.35 261.74 257.85 271 222.36 267.95 186.87"
      style="fill:#F2A39F" />
    <polygon
      points="267.95 186.87 277.21 151.37 160.68 151.37 151.43 186.87 154.47 222.36 145.22 257.85 148.26 293.35 139.01 328.84 255.53 328.84 264.79 293.35 261.74 257.85 271 222.36 267.95 186.87"
      style="fill:#fff;opacity:0.7000000000000001" />
    <polygon points="267.95 186.87 151.43 186.87 160.68 151.37 277.21 151.37 267.95 186.87"
      style="fill:#fff;opacity:0.5" />
    <polygon points="261.74 257.85 145.22 257.85 154.47 222.36 271 222.36 261.74 257.85" style="fill:#fff;opacity:0.5">
    </polygon>
    <polygon points="255.53 328.84 139 328.84 148.26 293.35 264.79 293.35 255.53 328.84" style="fill:#fff;opacity:0.5">
    </polygon>
    <path
      d="M252.36,201.7a12.74,12.74,0,0,1-3.68.5,10.25,10.25,0,0,1-4.89-1,1.79,1.79,0,0,0-.91-.25h0a1.81,1.81,0,0,0-.84.22l-.06,0h0l0,0a5.91,5.91,0,0,1-1.42.57,13,13,0,0,1-3.43.43c-.35,0-.69,0-1,0a12.1,12.1,0,0,1-2.65-.47,1.78,1.78,0,0,0-.39-.07,1.6,1.6,0,0,0-1.73,1.59h0v1.08H186a6.34,6.34,0,0,0-6.34,6.35v6.39A6.34,6.34,0,0,0,186,223.4h51.53l.34,0c.55.46,1.13.92,1.75,1.39s1.5,1.12,2.31,1.7a1.62,1.62,0,0,0,1.9,0c6.48-4.7,10.64-7.94,10.64-16.84v-6.4A1.61,1.61,0,0,0,252.36,201.7Z"
      style="opacity:0.2" />
    <rect x="178.67" y="200.79" width="64.22" height="19.09" rx="6.35" style="fill:#F2A39F" />
    <path
      d="M247.69,198.68a10.31,10.31,0,0,1-4.89-1,1.72,1.72,0,0,0-1.8,0,10.32,10.32,0,0,1-4.9,1,12.79,12.79,0,0,1-3.68-.5,1.6,1.6,0,0,0-2.11,1.52v6.4c0,8.91,4.16,12.15,10.64,16.85a1.62,1.62,0,0,0,1.9,0c6.48-4.7,10.64-7.94,10.64-16.85v-6.4a1.61,1.61,0,0,0-2.12-1.52A12.74,12.74,0,0,1,247.69,198.68Z"
      style="fill:#F2A39F" />
    <path
      d="M247.69,198.68a10.31,10.31,0,0,1-4.89-1,1.72,1.72,0,0,0-1.8,0,10.32,10.32,0,0,1-4.9,1,12.79,12.79,0,0,1-3.68-.5,1.6,1.6,0,0,0-2.11,1.52v6.4c0,8.91,4.16,12.15,10.64,16.85a1.62,1.62,0,0,0,1.9,0c6.48-4.7,10.64-7.94,10.64-16.85v-6.4a1.61,1.61,0,0,0-2.12-1.52A12.74,12.74,0,0,1,247.69,198.68Z"
      style="fill:#fff;opacity:0.30000000000000004" />
    <path
      d="M241,197.66a10.32,10.32,0,0,1-4.9,1,12.84,12.84,0,0,1-3.68-.5,1.6,1.6,0,0,0-2.11,1.52v6.4c0,8.91,4.16,12.15,10.64,16.85a1.63,1.63,0,0,0,1,.31V197.4A1.74,1.74,0,0,0,241,197.66Z"
      style="fill:#fff;opacity:0.2" />
    <path
      d="M251.19,204.36a26,26,0,0,0-10.12,7.13,13.94,13.94,0,0,0-6.53-2.61l-.31,0v1.53l.17.06a13.38,13.38,0,0,1,6.48,5l.25.36.21-.39a24.81,24.81,0,0,1,10.07-10.08l.15-.07v-1Z"
      style="fill:#263238" />
    <path
      d="M275.15,161.36h-4.42a4,4,0,0,1-4.05-4.44l.39-4.42a4.93,4.93,0,0,1,4.82-4.44h4.42a4,4,0,0,1,4.06,4.44l-.39,4.42A5,5,0,0,1,275.15,161.36Z"
      style="fill:#F2A39F" />
    <polygon
      points="276.99 152.49 276.03 151.43 273.61 153.65 271.59 151.43 270.44 152.49 272.47 154.71 270.06 156.93 271.02 157.98 273.43 155.76 275.46 157.98 276.6 156.93 274.57 154.71 276.99 152.49"
      style="fill:#fff" />
  </g>
</svg>